<svg id="visual" viewBox="0 0 900 600" width="900" height="600" xmlns="http://www.w3.org/2000/svg" xmlns:xlink="http://www.w3.org/1999/xlink" version="1.1"><g stroke-width="1" stroke-linejoin="bevel"><path d="M464 302.9L484 319L496 272.1Z" fill="#205a7a" stroke="#205a7a"></path><path d="M496 272.1L465 265L464 302.9Z" fill="#246688" stroke="#246688"></path><path d="M484 319L534 304L496 272.1Z" fill="#246688" stroke="#246688"></path><path d="M428 397.6L509 351.7L484 319Z" fill="#0c2435" stroke="#0c2435"></path><path d="M484 319L509 351.7L534 304Z" fill="#15384f" stroke="#15384f"></path><path d="M425 273.1L428 319.9L464 302.9Z" fill="#277297" stroke="#277297"></path><path d="M464 302.9L428 319.9L484 319Z" fill="#277297" stroke="#277297"></path><path d="M611 359.9L552 291L534 304Z" fill="#00101c" stroke="#00101c"></path><path d="M534 304L552 291L496 272.1Z" fill="#297ea6" stroke="#297ea6"></path><path d="M465 265L425 273.1L464 302.9Z" fill="#246688" stroke="#246688"></path><path d="M569 265.1L504 225.3L496 272.1Z" fill="#246688" stroke="#246688"></path><path d="M496 272.1L504 225.3L465 265Z" fill="#00101c" stroke="#00101c"></path><path d="M465 265L424 249.3L425 273.1Z" fill="#15384f" stroke="#15384f"></path><path d="M469 187.3L424 249.3L465 265Z" fill="#081a28" stroke="#081a28"></path><path d="M428 397.6L510 376.9L509 351.7Z" fill="#1d4e6b" stroke="#1d4e6b"></path><path d="M509 351.7L611 359.9L534 304Z" fill="#0c2435" stroke="#0c2435"></path><path d="M647 275L569 265.1L552 291Z" fill="#19435d" stroke="#19435d"></path><path d="M552 291L569 265.1L496 272.1Z" fill="#15384f" stroke="#15384f"></path><path d="M469 187.3L413 242.3L424 249.3Z" fill="#277297" stroke="#277297"></path><path d="M424 249.3L413 242.3L425 273.1Z" fill="#277297" stroke="#277297"></path><path d="M385 292.1L399 340.9L428 319.9Z" fill="#277297" stroke="#277297"></path><path d="M385 292.1L428 319.9L425 273.1Z" fill="#277297" stroke="#277297"></path><path d="M428 319.9L428 397.6L484 319Z" fill="#205a7a" stroke="#205a7a"></path><path d="M413 242.3L385 292.1L425 273.1Z" fill="#19435d" stroke="#19435d"></path><path d="M502 188.4L500 189.4L504 225.3Z" fill="#15384f" stroke="#15384f"></path><path d="M504 225.3L469 187.3L465 265Z" fill="#00101c" stroke="#00101c"></path><path d="M564 180.3L502 188.4L504 225.3Z" fill="#15384f" stroke="#15384f"></path><path d="M481 159.6L469 187.3L500 189.4Z" fill="#1d4e6b" stroke="#1d4e6b"></path><path d="M500 189.4L469 187.3L504 225.3Z" fill="#277297" stroke="#277297"></path><path d="M360 290.1L375 301L385 292.1Z" fill="#1d4e6b" stroke="#1d4e6b"></path><path d="M385 292.1L375 301L399 340.9Z" fill="#0c2435" stroke="#0c2435"></path><path d="M469 187.3L393 227.3L413 242.3Z" fill="#1d4e6b" stroke="#1d4e6b"></path><path d="M413 242.3L393 227.3L385 292.1Z" fill="#19435d" stroke="#19435d"></path><path d="M417 398.7L428 397.6L399 340.9Z" fill="#19435d" stroke="#19435d"></path><path d="M399 340.9L428 397.6L428 319.9Z" fill="#19435d" stroke="#19435d"></path><path d="M472 423.7L545 404.6L510 376.9Z" fill="#15384f" stroke="#15384f"></path><path d="M510 376.9L545 404.6L509 351.7Z" fill="#297ea6" stroke="#297ea6"></path><path d="M366 377.9L417 398.7L399 340.9Z" fill="#297ea6" stroke="#297ea6"></path><path d="M428 397.6L472 423.7L510 376.9Z" fill="#1d4e6b" stroke="#1d4e6b"></path><path d="M393 227.3L360 290.1L385 292.1Z" fill="#112e42" stroke="#112e42"></path><path d="M375 301L356 318L399 340.9Z" fill="#205a7a" stroke="#205a7a"></path><path d="M422 424.7L472 423.7L428 397.6Z" fill="#297ea6" stroke="#297ea6"></path><path d="M352 308L356 318L375 301Z" fill="#246688" stroke="#246688"></path><path d="M641 243.3L600 221.1L569 265.1Z" fill="#1d4e6b" stroke="#1d4e6b"></path><path d="M569 265.1L564 180.3L504 225.3Z" fill="#081a28" stroke="#081a28"></path><path d="M503 135.6L481 159.6L502 188.4Z" fill="#15384f" stroke="#15384f"></path><path d="M502 188.4L481 159.6L500 189.4Z" fill="#0c2435" stroke="#0c2435"></path><path d="M469 187.3L387 171.4L393 227.3Z" fill="#1d4e6b" stroke="#1d4e6b"></path><path d="M360 290.1L352 308L375 301Z" fill="#0c2435" stroke="#0c2435"></path><path d="M600 221.1L564 180.3L569 265.1Z" fill="#246688" stroke="#246688"></path><path d="M481 159.6L472 157.4L469 187.3Z" fill="#00101c" stroke="#00101c"></path><path d="M545 404.6L611 359.9L509 351.7Z" fill="#297ea6" stroke="#297ea6"></path><path d="M373 433.6L422 424.7L417 398.7Z" fill="#081a28" stroke="#081a28"></path><path d="M417 398.7L422 424.7L428 397.6Z" fill="#205a7a" stroke="#205a7a"></path><path d="M354 373.7L399 340.9L356 318Z" fill="#19435d" stroke="#19435d"></path><path d="M354 373.7L366 377.9L399 340.9Z" fill="#081a28" stroke="#081a28"></path><path d="M299 338.9L354 373.7L356 318Z" fill="#277297" stroke="#277297"></path><path d="M398 467.4L423 460.4L422 424.7Z" fill="#205a7a" stroke="#205a7a"></path><path d="M422 424.7L476 450.4L472 423.7Z" fill="#0c2435" stroke="#0c2435"></path><path d="M472 423.7L505 457.6L545 404.6Z" fill="#246688" stroke="#246688"></path><path d="M472 157.4L387 171.4L469 187.3Z" fill="#0c2435" stroke="#0c2435"></path><path d="M393 227.3L320 246.3L360 290.1Z" fill="#205a7a" stroke="#205a7a"></path><path d="M360 290.1L303 275.1L352 308Z" fill="#277297" stroke="#277297"></path><path d="M481 159.6L503 135.6L472 157.4Z" fill="#19435d" stroke="#19435d"></path><path d="M472 157.4L399 122.6L387 171.4Z" fill="#00101c" stroke="#00101c"></path><path d="M564 180.3L503 135.6L502 188.4Z" fill="#00101c" stroke="#00101c"></path><path d="M600 221.1L609 189.4L564 180.3Z" fill="#277297" stroke="#277297"></path><path d="M564 180.3L563 136.6L503 135.6Z" fill="#0c2435" stroke="#0c2435"></path><path d="M652 233.1L609 189.4L600 221.1Z" fill="#081a28" stroke="#081a28"></path><path d="M611 359.9L647 275L552 291Z" fill="#19435d" stroke="#19435d"></path><path d="M647 275L641 243.3L569 265.1Z" fill="#0c2435" stroke="#0c2435"></path><path d="M476 450.4L505 457.6L472 423.7Z" fill="#00101c" stroke="#00101c"></path><path d="M545 404.6L592 424.6L611 359.9Z" fill="#246688" stroke="#246688"></path><path d="M595 463.4L592 424.6L545 404.6Z" fill="#15384f" stroke="#15384f"></path><path d="M611 359.9L667 303L647 275Z" fill="#246688" stroke="#246688"></path><path d="M476 450.4L479 464.4L505 457.6Z" fill="#112e42" stroke="#112e42"></path><path d="M423 460.4L479 464.4L476 450.4Z" fill="#297ea6" stroke="#297ea6"></path><path d="M611 413.7L638 375.9L611 359.9Z" fill="#297ea6" stroke="#297ea6"></path><path d="M592 424.6L611 413.7L611 359.9Z" fill="#081a28" stroke="#081a28"></path><path d="M328 207.4L320 246.3L393 227.3Z" fill="#112e42" stroke="#112e42"></path><path d="M352 308L299 338.9L356 318Z" fill="#205a7a" stroke="#205a7a"></path><path d="M599 130.6L563 136.6L564 180.3Z" fill="#1d4e6b" stroke="#1d4e6b"></path><path d="M681 256.1L652 233.1L641 243.3Z" fill="#112e42" stroke="#112e42"></path><path d="M641 243.3L652 233.1L600 221.1Z" fill="#1d4e6b" stroke="#1d4e6b"></path><path d="M609 189.4L599 130.6L564 180.3Z" fill="#19435d" stroke="#19435d"></path><path d="M681 256.1L641 243.3L647 275Z" fill="#15384f" stroke="#15384f"></path><path d="M373 433.6L417 398.7L366 377.9Z" fill="#277297" stroke="#277297"></path><path d="M422 424.7L423 460.4L476 450.4Z" fill="#112e42" stroke="#112e42"></path><path d="M661 367.7L655 355.7L638 375.9Z" fill="#246688" stroke="#246688"></path><path d="M638 375.9L655 355.7L611 359.9Z" fill="#1d4e6b" stroke="#1d4e6b"></path><path d="M354 373.7L373 433.6L366 377.9Z" fill="#1d4e6b" stroke="#1d4e6b"></path><path d="M552 99.7L502 115.7L503 135.6Z" fill="#246688" stroke="#246688"></path><path d="M503 135.6L502 115.7L472 157.4Z" fill="#1d4e6b" stroke="#1d4e6b"></path><path d="M655 355.7L667 303L611 359.9Z" fill="#0c2435" stroke="#0c2435"></path><path d="M387 171.4L328 207.4L393 227.3Z" fill="#246688" stroke="#246688"></path><path d="M476 524.1L487 476.3L479 464.4Z" fill="#297ea6" stroke="#297ea6"></path><path d="M479 464.4L487 476.3L505 457.6Z" fill="#1d4e6b" stroke="#1d4e6b"></path><path d="M544 489.4L595 463.4L545 404.6Z" fill="#205a7a" stroke="#205a7a"></path><path d="M296 247.1L303 275.1L320 246.3Z" fill="#205a7a" stroke="#205a7a"></path><path d="M320 246.3L303 275.1L360 290.1Z" fill="#277297" stroke="#277297"></path><path d="M354 373.7L350 449.6L373 433.6Z" fill="#277297" stroke="#277297"></path><path d="M655 433.6L661 367.7L638 375.9Z" fill="#112e42" stroke="#112e42"></path><path d="M714 320.9L696 292.1L667 303Z" fill="#0c2435" stroke="#0c2435"></path><path d="M290 316.9L299 338.9L352 308Z" fill="#15384f" stroke="#15384f"></path><path d="M435 86.7L399 122.6L472 157.4Z" fill="#277297" stroke="#277297"></path><path d="M387 171.4L312 155.6L328 207.4Z" fill="#297ea6" stroke="#297ea6"></path><path d="M356 459.6L398 467.4L373 433.6Z" fill="#1d4e6b" stroke="#1d4e6b"></path><path d="M373 433.6L398 467.4L422 424.7Z" fill="#277297" stroke="#277297"></path><path d="M423 460.4L476 524.1L479 464.4Z" fill="#205a7a" stroke="#205a7a"></path><path d="M328 207.4L296 247.1L320 246.3Z" fill="#246688" stroke="#246688"></path><path d="M303 275.1L290 316.9L352 308Z" fill="#112e42" stroke="#112e42"></path><path d="M696 292.1L681 256.1L667 303Z" fill="#00101c" stroke="#00101c"></path><path d="M667 303L681 256.1L647 275Z" fill="#0c2435" stroke="#0c2435"></path><path d="M665 173.4L599 130.6L609 189.4Z" fill="#246688" stroke="#246688"></path><path d="M299 338.9L303 367.7L354 373.7Z" fill="#15384f" stroke="#15384f"></path><path d="M259 299L290 316.9L303 275.1Z" fill="#112e42" stroke="#112e42"></path><path d="M219 360.7L299 381.7L303 367.7Z" fill="#277297" stroke="#277297"></path><path d="M665 173.4L609 189.4L652 233.1Z" fill="#19435d" stroke="#19435d"></path><path d="M552 99.7L511 91.6L502 115.7Z" fill="#297ea6" stroke="#297ea6"></path><path d="M399 122.6L366 135.4L387 171.4Z" fill="#112e42" stroke="#112e42"></path><path d="M243 197.4L240 209.3L296 247.1Z" fill="#1d4e6b" stroke="#1d4e6b"></path><path d="M592 424.6L620 446.6L611 413.7Z" fill="#0c2435" stroke="#0c2435"></path><path d="M611 413.7L655 433.6L638 375.9Z" fill="#0c2435" stroke="#0c2435"></path><path d="M544 489.4L545 404.6L505 457.6Z" fill="#297ea6" stroke="#297ea6"></path><path d="M595 463.4L620 446.6L592 424.6Z" fill="#205a7a" stroke="#205a7a"></path><path d="M506 518.3L544 489.4L487 476.3Z" fill="#297ea6" stroke="#297ea6"></path><path d="M487 476.3L544 489.4L505 457.6Z" fill="#00101c" stroke="#00101c"></path><path d="M552 99.7L503 135.6L563 136.6Z" fill="#112e42" stroke="#112e42"></path><path d="M502 115.7L435 86.7L472 157.4Z" fill="#205a7a" stroke="#205a7a"></path><path d="M599 130.6L552 99.7L563 136.6Z" fill="#246688" stroke="#246688"></path><path d="M645 449.4L622 450.4L650 510.3Z" fill="#205a7a" stroke="#205a7a"></path><path d="M595 463.4L622 450.4L620 446.6Z" fill="#19435d" stroke="#19435d"></path><path d="M620 446.6L655 433.6L611 413.7Z" fill="#00101c" stroke="#00101c"></path><path d="M299 381.7L350 449.6L354 373.7Z" fill="#112e42" stroke="#112e42"></path><path d="M219 360.7L303 367.7L299 338.9Z" fill="#19435d" stroke="#19435d"></path><path d="M303 367.7L299 381.7L354 373.7Z" fill="#081a28" stroke="#081a28"></path><path d="M714 320.9L667 303L655 355.7Z" fill="#1d4e6b" stroke="#1d4e6b"></path><path d="M696 292.1L692 249.3L681 256.1Z" fill="#246688" stroke="#246688"></path><path d="M681 256.1L692 249.3L652 233.1Z" fill="#1d4e6b" stroke="#1d4e6b"></path><path d="M279 499.4L356 459.6L350 449.6Z" fill="#1d4e6b" stroke="#1d4e6b"></path><path d="M350 449.6L356 459.6L373 433.6Z" fill="#246688" stroke="#246688"></path><path d="M483 79.7L435 86.7L502 115.7Z" fill="#1d4e6b" stroke="#1d4e6b"></path><path d="M399 122.6L357 104.6L366 135.4Z" fill="#1d4e6b" stroke="#1d4e6b"></path><path d="M477 68.9L483 79.7L500 58.9Z" fill="#112e42" stroke="#112e42"></path><path d="M511 91.6L483 79.7L502 115.7Z" fill="#081a28" stroke="#081a28"></path><path d="M692 249.3L665 173.4L652 233.1Z" fill="#205a7a" stroke="#205a7a"></path><path d="M599 130.6L570 78.9L552 99.7Z" fill="#112e42" stroke="#112e42"></path><path d="M645 449.4L655 433.6L620 446.6Z" fill="#277297" stroke="#277297"></path><path d="M661 367.7L714 320.9L655 355.7Z" fill="#205a7a" stroke="#205a7a"></path><path d="M650 510.3L622 450.4L595 463.4Z" fill="#277297" stroke="#277297"></path><path d="M622 450.4L645 449.4L620 446.6Z" fill="#205a7a" stroke="#205a7a"></path><path d="M356 459.6L385 492.3L398 467.4Z" fill="#246688" stroke="#246688"></path><path d="M398 467.4L403 513.3L423 460.4Z" fill="#19435d" stroke="#19435d"></path><path d="M316 101.7L312 155.6L366 135.4Z" fill="#112e42" stroke="#112e42"></path><path d="M366 135.4L312 155.6L387 171.4Z" fill="#00101c" stroke="#00101c"></path><path d="M476 524.1L506 518.3L487 476.3Z" fill="#246688" stroke="#246688"></path><path d="M544 489.4L595 521.3L595 463.4Z" fill="#297ea6" stroke="#297ea6"></path><path d="M500 58.9L483 79.7L511 91.6Z" fill="#19435d" stroke="#19435d"></path><path d="M483 79.7L477 68.9L435 86.7Z" fill="#277297" stroke="#277297"></path><path d="M256 279L259 299L303 275.1Z" fill="#19435d" stroke="#19435d"></path><path d="M290 316.9L219 360.7L299 338.9Z" fill="#205a7a" stroke="#205a7a"></path><path d="M256 279L303 275.1L296 247.1Z" fill="#00101c" stroke="#00101c"></path><path d="M716 406.7L714 320.9L661 367.7Z" fill="#00101c" stroke="#00101c"></path><path d="M696 292.1L759 260.1L692 249.3Z" fill="#19435d" stroke="#19435d"></path><path d="M448 535.3L476 524.1L423 460.4Z" fill="#277297" stroke="#277297"></path><path d="M396 68.7L399 122.6L435 86.7Z" fill="#277297" stroke="#277297"></path><path d="M387 70.9L357 104.6L399 122.6Z" fill="#00101c" stroke="#00101c"></path><path d="M629 101.7L570 78.9L599 130.6Z" fill="#19435d" stroke="#19435d"></path><path d="M552 99.7L520 64.7L511 91.6Z" fill="#1d4e6b" stroke="#1d4e6b"></path><path d="M251 248.1L256 279L296 247.1Z" fill="#15384f" stroke="#15384f"></path><path d="M570 78.9L520 64.7L552 99.7Z" fill="#00101c" stroke="#00101c"></path><path d="M375 521.1L403 513.3L385 492.3Z" fill="#0c2435" stroke="#0c2435"></path><path d="M385 492.3L403 513.3L398 467.4Z" fill="#00101c" stroke="#00101c"></path><path d="M520 64.7L500 58.9L511 91.6Z" fill="#0c2435" stroke="#0c2435"></path><path d="M408 34.9L396 68.7L435 86.7Z" fill="#277297" stroke="#277297"></path><path d="M473 0L500 58.9L511 0Z" fill="#19435d" stroke="#19435d"></path><path d="M519 600L547 525.3L506 518.3Z" fill="#246688" stroke="#246688"></path><path d="M506 518.3L547 525.3L544 489.4Z" fill="#15384f" stroke="#15384f"></path><path d="M664 115.7L629 101.7L599 130.6Z" fill="#15384f" stroke="#15384f"></path><path d="M240 209.3L251 248.1L296 247.1Z" fill="#277297" stroke="#277297"></path><path d="M210 284L219 360.7L259 299Z" fill="#246688" stroke="#246688"></path><path d="M403 513.3L448 535.3L423 460.4Z" fill="#205a7a" stroke="#205a7a"></path><path d="M476 524.1L519 600L506 518.3Z" fill="#0c2435" stroke="#0c2435"></path><path d="M240 209.3L248 247.3L251 248.1Z" fill="#15384f" stroke="#15384f"></path><path d="M251 248.1L248 247.3L256 279Z" fill="#081a28" stroke="#081a28"></path><path d="M408 34.9L435 86.7L477 68.9Z" fill="#00101c" stroke="#00101c"></path><path d="M396 68.7L387 70.9L399 122.6Z" fill="#00101c" stroke="#00101c"></path><path d="M272 430.6L286 436.4L299 381.7Z" fill="#205a7a" stroke="#205a7a"></path><path d="M299 381.7L286 436.4L350 449.6Z" fill="#246688" stroke="#246688"></path><path d="M356 459.6L375 521.1L385 492.3Z" fill="#246688" stroke="#246688"></path><path d="M272 430.6L299 381.7L228 391.7Z" fill="#112e42" stroke="#112e42"></path><path d="M375 521.1L415 530.1L403 513.3Z" fill="#246688" stroke="#246688"></path><path d="M403 513.3L415 530.1L448 535.3Z" fill="#246688" stroke="#246688"></path><path d="M693 152.4L692 152.6L714 178.3Z" fill="#246688" stroke="#246688"></path><path d="M665 173.4L664 115.7L599 130.6Z" fill="#297ea6" stroke="#297ea6"></path><path d="M692 152.6L665 173.4L714 178.3Z" fill="#00101c" stroke="#00101c"></path><path d="M744 327L736 313.9L714 320.9Z" fill="#1d4e6b" stroke="#1d4e6b"></path><path d="M714 320.9L736 313.9L696 292.1Z" fill="#205a7a" stroke="#205a7a"></path><path d="M716 406.7L661 367.7L655 433.6Z" fill="#205a7a" stroke="#205a7a"></path><path d="M714 178.3L665 173.4L692 249.3Z" fill="#1d4e6b" stroke="#1d4e6b"></path><path d="M692 152.6L664 115.7L665 173.4Z" fill="#15384f" stroke="#15384f"></path><path d="M574 534.1L544 489.4L547 525.3Z" fill="#0c2435" stroke="#0c2435"></path><path d="M574 534.1L595 521.3L544 489.4Z" fill="#00101c" stroke="#00101c"></path><path d="M693 152.4L664 115.7L692 152.6Z" fill="#15384f" stroke="#15384f"></path><path d="M322 530.3L375 521.1L356 459.6Z" fill="#0c2435" stroke="#0c2435"></path><path d="M219 360.7L290 316.9L259 299Z" fill="#277297" stroke="#277297"></path><path d="M279 499.4L322 530.3L356 459.6Z" fill="#0c2435" stroke="#0c2435"></path><path d="M573 600L574 534.1L547 525.3Z" fill="#00101c" stroke="#00101c"></path><path d="M702 518.3L655 433.6L645 449.4Z" fill="#0c2435" stroke="#0c2435"></path><path d="M756 456.6L716 406.7L655 433.6Z" fill="#246688" stroke="#246688"></path><path d="M774 231.3L714 178.3L692 249.3Z" fill="#15384f" stroke="#15384f"></path><path d="M690 77.7L657 98.6L664 115.7Z" fill="#1d4e6b" stroke="#1d4e6b"></path><path d="M387 70.9L316 101.7L357 104.6Z" fill="#246688" stroke="#246688"></path><path d="M357 104.6L316 101.7L366 135.4Z" fill="#246688" stroke="#246688"></path><path d="M243 197.4L296 247.1L328 207.4Z" fill="#0c2435" stroke="#0c2435"></path><path d="M716 406.7L744 327L714 320.9Z" fill="#19435d" stroke="#19435d"></path><path d="M736 313.9L759 260.1L696 292.1Z" fill="#19435d" stroke="#19435d"></path><path d="M690 77.7L664 115.7L710 78.9Z" fill="#19435d" stroke="#19435d"></path><path d="M664 115.7L657 98.6L629 101.7Z" fill="#246688" stroke="#246688"></path><path d="M629 101.7L567 45.9L570 78.9Z" fill="#081a28" stroke="#081a28"></path><path d="M570 78.9L567 45.9L520 64.7Z" fill="#205a7a" stroke="#205a7a"></path><path d="M243 197.4L328 207.4L312 155.6Z" fill="#112e42" stroke="#112e42"></path><path d="M210 284L259 299L256 279Z" fill="#00101c" stroke="#00101c"></path><path d="M657 10.9L567 45.9L629 101.7Z" fill="#15384f" stroke="#15384f"></path><path d="M473 0L408 34.9L477 68.9Z" fill="#00101c" stroke="#00101c"></path><path d="M248 160.6L243 197.4L312 155.6Z" fill="#277297" stroke="#277297"></path><path d="M628 526.1L595 463.4L595 521.3Z" fill="#246688" stroke="#246688"></path><path d="M628 526.1L650 510.3L595 463.4Z" fill="#081a28" stroke="#081a28"></path><path d="M598 590.1L628 526.1L595 521.3Z" fill="#277297" stroke="#277297"></path><path d="M396 68.7L408 34.9L387 70.9Z" fill="#246688" stroke="#246688"></path><path d="M387 70.9L286 61.7L316 101.7Z" fill="#112e42" stroke="#112e42"></path><path d="M473 0L477 68.9L500 58.9Z" fill="#112e42" stroke="#112e42"></path><path d="M316 101.7L248 160.6L312 155.6Z" fill="#112e42" stroke="#112e42"></path><path d="M243 197.4L213 204.4L240 209.3Z" fill="#277297" stroke="#277297"></path><path d="M799 288.1L759 260.1L736 313.9Z" fill="#0c2435" stroke="#0c2435"></path><path d="M768 357.9L759 330L744 327Z" fill="#205a7a" stroke="#205a7a"></path><path d="M744 327L759 330L736 313.9Z" fill="#19435d" stroke="#19435d"></path><path d="M210 284L256 279L248 247.3Z" fill="#15384f" stroke="#15384f"></path><path d="M219 360.7L228 391.7L299 381.7Z" fill="#246688" stroke="#246688"></path><path d="M213 204.4L248 247.3L240 209.3Z" fill="#277297" stroke="#277297"></path><path d="M180 230.3L210 284L248 247.3Z" fill="#00101c" stroke="#00101c"></path><path d="M279 499.4L286 436.4L272 430.6Z" fill="#277297" stroke="#277297"></path><path d="M279 499.4L350 449.6L286 436.4Z" fill="#277297" stroke="#277297"></path><path d="M400 600L440 600L415 530.1Z" fill="#081a28" stroke="#081a28"></path><path d="M440 600L472 600L448 535.3Z" fill="#277297" stroke="#277297"></path><path d="M716 406.7L768 357.9L744 327Z" fill="#081a28" stroke="#081a28"></path><path d="M813 270L774 231.3L759 260.1Z" fill="#112e42" stroke="#112e42"></path><path d="M778 361.7L768 357.9L778 376.7Z" fill="#081a28" stroke="#081a28"></path><path d="M232 150.4L213 204.4L243 197.4Z" fill="#277297" stroke="#277297"></path><path d="M231 441.4L279 499.4L272 430.6Z" fill="#246688" stroke="#246688"></path><path d="M223 107.6L232 150.4L248 160.6Z" fill="#19435d" stroke="#19435d"></path><path d="M248 160.6L232 150.4L243 197.4Z" fill="#00101c" stroke="#00101c"></path><path d="M223 107.6L248 160.6L316 101.7Z" fill="#277297" stroke="#277297"></path><path d="M799 288.1L736 313.9L759 330Z" fill="#0c2435" stroke="#0c2435"></path><path d="M759 260.1L774 231.3L692 249.3Z" fill="#246688" stroke="#246688"></path><path d="M710 78.9L664 115.7L693 152.4Z" fill="#0c2435" stroke="#0c2435"></path><path d="M194 431.6L231 441.4L228 391.7Z" fill="#205a7a" stroke="#205a7a"></path><path d="M228 391.7L231 441.4L272 430.6Z" fill="#112e42" stroke="#112e42"></path><path d="M511 0L500 58.9L517 0Z" fill="#081a28" stroke="#081a28"></path><path d="M517 0L500 58.9L520 64.7Z" fill="#297ea6" stroke="#297ea6"></path><path d="M517 0L520 64.7L567 45.9Z" fill="#081a28" stroke="#081a28"></path><path d="M578 0L517 0L567 45.9Z" fill="#081a28" stroke="#081a28"></path><path d="M710 78.9L693 152.4L727 85.7Z" fill="#246688" stroke="#246688"></path><path d="M657 98.6L684 66.9L629 101.7Z" fill="#205a7a" stroke="#205a7a"></path><path d="M778 376.7L768 357.9L716 406.7Z" fill="#19435d" stroke="#19435d"></path><path d="M768 357.9L778 361.7L759 330Z" fill="#277297" stroke="#277297"></path><path d="M184 330.9L192 351.9L219 360.7Z" fill="#081a28" stroke="#081a28"></path><path d="M219 360.7L192 351.9L228 391.7Z" fill="#081a28" stroke="#081a28"></path><path d="M184 330.9L219 360.7L210 284Z" fill="#00101c" stroke="#00101c"></path><path d="M690 77.7L684 66.9L657 98.6Z" fill="#112e42" stroke="#112e42"></path><path d="M773 431.6L778 376.7L716 406.7Z" fill="#081a28" stroke="#081a28"></path><path d="M251 522.3L313 545.1L279 499.4Z" fill="#246688" stroke="#246688"></path><path d="M279 499.4L313 545.1L322 530.3Z" fill="#277297" stroke="#277297"></path><path d="M322 530.3L366 588.1L375 521.1Z" fill="#081a28" stroke="#081a28"></path><path d="M448 535.3L472 600L476 524.1Z" fill="#205a7a" stroke="#205a7a"></path><path d="M121 303.9L184 330.9L210 284Z" fill="#081a28" stroke="#081a28"></path><path d="M440 600L448 535.3L415 530.1Z" fill="#19435d" stroke="#19435d"></path><path d="M574 534.1L598 590.1L595 521.3Z" fill="#277297" stroke="#277297"></path><path d="M473 0L406 0L408 34.9Z" fill="#19435d" stroke="#19435d"></path><path d="M408 34.9L345 0L387 70.9Z" fill="#19435d" stroke="#19435d"></path><path d="M472 600L519 600L476 524.1Z" fill="#15384f" stroke="#15384f"></path><path d="M345 0L286 61.7L387 70.9Z" fill="#081a28" stroke="#081a28"></path><path d="M641 0L578 0L567 45.9Z" fill="#00101c" stroke="#00101c"></path><path d="M366 588.1L415 530.1L375 521.1Z" fill="#0c2435" stroke="#0c2435"></path><path d="M276 0L282 62.9L286 61.7Z" fill="#246688" stroke="#246688"></path><path d="M286 61.7L282 62.9L316 101.7Z" fill="#1d4e6b" stroke="#1d4e6b"></path><path d="M704 524.1L702 518.3L650 510.3Z" fill="#297ea6" stroke="#297ea6"></path><path d="M650 510.3L702 518.3L645 449.4Z" fill="#19435d" stroke="#19435d"></path><path d="M704 524.1L650 510.3L628 526.1Z" fill="#112e42" stroke="#112e42"></path><path d="M690 77.7L710 78.9L684 66.9Z" fill="#081a28" stroke="#081a28"></path><path d="M684 66.9L657 10.9L629 101.7Z" fill="#15384f" stroke="#15384f"></path><path d="M758 140.4L693 152.4L714 178.3Z" fill="#15384f" stroke="#15384f"></path><path d="M786 152.4L758 140.4L714 178.3Z" fill="#0c2435" stroke="#0c2435"></path><path d="M810 332.9L799 288.1L759 330Z" fill="#277297" stroke="#277297"></path><path d="M774 231.3L786 152.4L714 178.3Z" fill="#277297" stroke="#277297"></path><path d="M810 332.9L759 330L778 361.7Z" fill="#297ea6" stroke="#297ea6"></path><path d="M176 231.1L180 230.3L213 204.4Z" fill="#00101c" stroke="#00101c"></path><path d="M213 204.4L180 230.3L248 247.3Z" fill="#277297" stroke="#277297"></path><path d="M176 231.1L213 204.4L118 160.6Z" fill="#205a7a" stroke="#205a7a"></path><path d="M744 495.4L756 456.6L655 433.6Z" fill="#205a7a" stroke="#205a7a"></path><path d="M573 600L598 590.1L574 534.1Z" fill="#277297" stroke="#277297"></path><path d="M698 600L704 524.1L628 526.1Z" fill="#00101c" stroke="#00101c"></path><path d="M744 495.4L756 476.4L756 456.6Z" fill="#277297" stroke="#277297"></path><path d="M756 456.6L773 431.6L716 406.7Z" fill="#297ea6" stroke="#297ea6"></path><path d="M816 390.7L810 332.9L778 361.7Z" fill="#246688" stroke="#246688"></path><path d="M519 600L573 600L547 525.3Z" fill="#00101c" stroke="#00101c"></path><path d="M313 545.1L366 588.1L322 530.3Z" fill="#0c2435" stroke="#0c2435"></path><path d="M366 588.1L400 600L415 530.1Z" fill="#081a28" stroke="#081a28"></path><path d="M174 115.6L213 204.4L232 150.4Z" fill="#246688" stroke="#246688"></path><path d="M180 230.3L176 231.1L210 284Z" fill="#277297" stroke="#277297"></path><path d="M758 140.4L727 85.7L693 152.4Z" fill="#205a7a" stroke="#205a7a"></path><path d="M711 0L657 10.9L684 66.9Z" fill="#19435d" stroke="#19435d"></path><path d="M169 420.6L194 431.6L228 391.7Z" fill="#277297" stroke="#277297"></path><path d="M234 513.3L251 522.3L279 499.4Z" fill="#15384f" stroke="#15384f"></path><path d="M169 420.6L228 391.7L192 351.9Z" fill="#0c2435" stroke="#0c2435"></path><path d="M282 62.9L223 107.6L316 101.7Z" fill="#1d4e6b" stroke="#1d4e6b"></path><path d="M744 495.4L655 433.6L702 518.3Z" fill="#112e42" stroke="#112e42"></path><path d="M756 456.6L784 458.6L773 431.6Z" fill="#112e42" stroke="#112e42"></path><path d="M816 390.7L778 361.7L778 376.7Z" fill="#1d4e6b" stroke="#1d4e6b"></path><path d="M704 524.1L744 495.4L702 518.3Z" fill="#0c2435" stroke="#0c2435"></path><path d="M306 600L370 600L366 588.1Z" fill="#081a28" stroke="#081a28"></path><path d="M366 588.1L370 600L400 600Z" fill="#19435d" stroke="#19435d"></path><path d="M306 600L366 588.1L313 545.1Z" fill="#297ea6" stroke="#297ea6"></path><path d="M832 314.9L813 270L799 288.1Z" fill="#0c2435" stroke="#0c2435"></path><path d="M799 288.1L813 270L759 260.1Z" fill="#0c2435" stroke="#0c2435"></path><path d="M406 0L345 0L408 34.9Z" fill="#297ea6" stroke="#297ea6"></path><path d="M282 62.9L217 73.9L223 107.6Z" fill="#297ea6" stroke="#297ea6"></path><path d="M234 513.3L279 499.4L231 441.4Z" fill="#0c2435" stroke="#0c2435"></path><path d="M786 152.4L762 114.6L758 140.4Z" fill="#00101c" stroke="#00101c"></path><path d="M758 140.4L762 114.6L727 85.7Z" fill="#205a7a" stroke="#205a7a"></path><path d="M684 66.9L710 78.9L713 0Z" fill="#1d4e6b" stroke="#1d4e6b"></path><path d="M711 0L684 66.9L713 0Z" fill="#297ea6" stroke="#297ea6"></path><path d="M816 166.6L786 152.4L774 231.3Z" fill="#19435d" stroke="#19435d"></path><path d="M573 600L617 600L598 590.1Z" fill="#1d4e6b" stroke="#1d4e6b"></path><path d="M598 590.1L617 600L628 526.1Z" fill="#277297" stroke="#277297"></path><path d="M778 527.1L781 494.4L744 495.4Z" fill="#205a7a" stroke="#205a7a"></path><path d="M657 10.9L641 0L567 45.9Z" fill="#277297" stroke="#277297"></path><path d="M173 506.4L234 513.3L231 441.4Z" fill="#297ea6" stroke="#297ea6"></path><path d="M251 522.3L243 542.1L313 545.1Z" fill="#246688" stroke="#246688"></path><path d="M781 494.4L784 458.6L756 476.4Z" fill="#081a28" stroke="#081a28"></path><path d="M756 476.4L784 458.6L756 456.6Z" fill="#297ea6" stroke="#297ea6"></path><path d="M773 431.6L816 390.7L778 376.7Z" fill="#246688" stroke="#246688"></path><path d="M105 376.7L169 420.6L192 351.9Z" fill="#246688" stroke="#246688"></path><path d="M194 431.6L173 506.4L231 441.4Z" fill="#19435d" stroke="#19435d"></path><path d="M105 376.7L192 351.9L184 330.9Z" fill="#246688" stroke="#246688"></path><path d="M832 439.6L816 390.7L773 431.6Z" fill="#277297" stroke="#277297"></path><path d="M810 332.9L832 314.9L799 288.1Z" fill="#00101c" stroke="#00101c"></path><path d="M840 315L832 314.9L810 332.9Z" fill="#112e42" stroke="#112e42"></path><path d="M842 234.3L826 199.3L774 231.3Z" fill="#297ea6" stroke="#297ea6"></path><path d="M183 573.1L243 542.1L234 513.3Z" fill="#00101c" stroke="#00101c"></path><path d="M234 513.3L243 542.1L251 522.3Z" fill="#0c2435" stroke="#0c2435"></path><path d="M214 49.7L217 73.9L282 62.9Z" fill="#205a7a" stroke="#205a7a"></path><path d="M98 191.4L130 246.3L176 231.1Z" fill="#19435d" stroke="#19435d"></path><path d="M842 234.3L774 231.3L813 270Z" fill="#1d4e6b" stroke="#1d4e6b"></path><path d="M786 152.4L817 153.4L762 114.6Z" fill="#205a7a" stroke="#205a7a"></path><path d="M826 199.3L816 166.6L774 231.3Z" fill="#15384f" stroke="#15384f"></path><path d="M713 0L710 78.9L768 40.9Z" fill="#00101c" stroke="#00101c"></path><path d="M816 390.7L840 315L810 332.9Z" fill="#1d4e6b" stroke="#1d4e6b"></path><path d="M832 314.9L840 315L813 270Z" fill="#246688" stroke="#246688"></path><path d="M275 585.1L306 600L313 545.1Z" fill="#112e42" stroke="#112e42"></path><path d="M784 458.6L832 439.6L773 431.6Z" fill="#15384f" stroke="#15384f"></path><path d="M744 495.4L781 494.4L756 476.4Z" fill="#205a7a" stroke="#205a7a"></path><path d="M740 545.1L744 495.4L704 524.1Z" fill="#112e42" stroke="#112e42"></path><path d="M705 600L740 545.1L704 524.1Z" fill="#0c2435" stroke="#0c2435"></path><path d="M824 162.4L817 153.4L816 166.6Z" fill="#15384f" stroke="#15384f"></path><path d="M816 166.6L817 153.4L786 152.4Z" fill="#205a7a" stroke="#205a7a"></path><path d="M243 542.1L275 585.1L313 545.1Z" fill="#246688" stroke="#246688"></path><path d="M890 272.1L842 234.3L813 270Z" fill="#081a28" stroke="#081a28"></path><path d="M837 166.6L824 162.4L816 166.6Z" fill="#081a28" stroke="#081a28"></path><path d="M174 115.6L232 150.4L223 107.6Z" fill="#1d4e6b" stroke="#1d4e6b"></path><path d="M176 231.1L130 246.3L210 284Z" fill="#0c2435" stroke="#0c2435"></path><path d="M275 585.1L295 600L306 600Z" fill="#205a7a" stroke="#205a7a"></path><path d="M217 73.9L174 115.6L223 107.6Z" fill="#205a7a" stroke="#205a7a"></path><path d="M837 166.6L816 166.6L826 199.3Z" fill="#0c2435" stroke="#0c2435"></path><path d="M786 520.3L802 474.3L781 494.4Z" fill="#112e42" stroke="#112e42"></path><path d="M781 494.4L802 474.3L784 458.6Z" fill="#15384f" stroke="#15384f"></path><path d="M900 325.9L890 272.1L840 315Z" fill="#0c2435" stroke="#0c2435"></path><path d="M345 0L276 0L286 61.7Z" fill="#205a7a" stroke="#205a7a"></path><path d="M217 73.9L186 47.7L174 115.6Z" fill="#205a7a" stroke="#205a7a"></path><path d="M130 246.3L121 303.9L210 284Z" fill="#15384f" stroke="#15384f"></path><path d="M236 17.9L214 49.7L282 62.9Z" fill="#1d4e6b" stroke="#1d4e6b"></path><path d="M101 404.6L157 457.6L169 420.6Z" fill="#246688" stroke="#246688"></path><path d="M169 420.6L157 457.6L194 431.6Z" fill="#112e42" stroke="#112e42"></path><path d="M243 542.1L193 600L275 585.1Z" fill="#15384f" stroke="#15384f"></path><path d="M710 78.9L727 85.7L768 40.9Z" fill="#1d4e6b" stroke="#1d4e6b"></path><path d="M657 10.9L711 0L641 0Z" fill="#246688" stroke="#246688"></path><path d="M727 85.7L790 66.9L768 40.9Z" fill="#00101c" stroke="#00101c"></path><path d="M617 600L698 600L628 526.1Z" fill="#112e42" stroke="#112e42"></path><path d="M740 545.1L778 527.1L744 495.4Z" fill="#246688" stroke="#246688"></path><path d="M727 85.7L762 114.6L790 66.9Z" fill="#19435d" stroke="#19435d"></path><path d="M67 214.3L117 260.1L130 246.3Z" fill="#297ea6" stroke="#297ea6"></path><path d="M130 246.3L117 260.1L121 303.9Z" fill="#277297" stroke="#277297"></path><path d="M799 585.1L778 527.1L740 545.1Z" fill="#205a7a" stroke="#205a7a"></path><path d="M900 190.4L837 166.6L826 199.3Z" fill="#112e42" stroke="#112e42"></path><path d="M824 162.4L837 166.6L817 153.4Z" fill="#1d4e6b" stroke="#1d4e6b"></path><path d="M276 0L236 17.9L282 62.9Z" fill="#19435d" stroke="#19435d"></path><path d="M834 477.3L832 439.6L802 474.3Z" fill="#15384f" stroke="#15384f"></path><path d="M802 474.3L832 439.6L784 458.6Z" fill="#15384f" stroke="#15384f"></path><path d="M799 585.1L786 520.3L778 527.1Z" fill="#205a7a" stroke="#205a7a"></path><path d="M778 527.1L786 520.3L781 494.4Z" fill="#081a28" stroke="#081a28"></path><path d="M698 600L705 600L704 524.1Z" fill="#19435d" stroke="#19435d"></path><path d="M104 275.1L110 306L121 303.9Z" fill="#0c2435" stroke="#0c2435"></path><path d="M121 303.9L105 376.7L184 330.9Z" fill="#205a7a" stroke="#205a7a"></path><path d="M157 457.6L173 506.4L194 431.6Z" fill="#19435d" stroke="#19435d"></path><path d="M790 66.9L762 114.6L817 153.4Z" fill="#205a7a" stroke="#205a7a"></path><path d="M844 57.7L790 66.9L817 153.4Z" fill="#15384f" stroke="#15384f"></path><path d="M276 0L248 0L236 17.9Z" fill="#297ea6" stroke="#297ea6"></path><path d="M236 17.9L231 11.9L214 49.7Z" fill="#277297" stroke="#277297"></path><path d="M248 0L231 11.9L236 17.9Z" fill="#205a7a" stroke="#205a7a"></path><path d="M214 49.7L186 47.7L217 73.9Z" fill="#277297" stroke="#277297"></path><path d="M67 214.3L104 275.1L117 260.1Z" fill="#00101c" stroke="#00101c"></path><path d="M117 260.1L104 275.1L121 303.9Z" fill="#19435d" stroke="#19435d"></path><path d="M99 527.1L156 499.4L77 495.4Z" fill="#297ea6" stroke="#297ea6"></path><path d="M157 457.6L156 499.4L173 506.4Z" fill="#112e42" stroke="#112e42"></path><path d="M173 506.4L183 573.1L234 513.3Z" fill="#205a7a" stroke="#205a7a"></path><path d="M275 585.1L193 600L295 600Z" fill="#246688" stroke="#246688"></path><path d="M192 0L186 47.7L214 49.7Z" fill="#0c2435" stroke="#0c2435"></path><path d="M174 115.6L118 160.6L213 204.4Z" fill="#205a7a" stroke="#205a7a"></path><path d="M86 320L105 376.7L110 306Z" fill="#297ea6" stroke="#297ea6"></path><path d="M110 306L105 376.7L121 303.9Z" fill="#205a7a" stroke="#205a7a"></path><path d="M869 463.4L834 477.3L900 486.4Z" fill="#297ea6" stroke="#297ea6"></path><path d="M786 520.3L834 477.3L802 474.3Z" fill="#277297" stroke="#277297"></path><path d="M900 280.1L890 272.1L900 325.9Z" fill="#205a7a" stroke="#205a7a"></path><path d="M100 148.4L118 160.6L100 95.7Z" fill="#0c2435" stroke="#0c2435"></path><path d="M705 600L738 600L740 545.1Z" fill="#15384f" stroke="#15384f"></path><path d="M99 527.1L158 516.3L156 499.4Z" fill="#112e42" stroke="#112e42"></path><path d="M156 499.4L158 516.3L173 506.4Z" fill="#1d4e6b" stroke="#1d4e6b"></path><path d="M62 380.7L101 404.6L105 376.7Z" fill="#205a7a" stroke="#205a7a"></path><path d="M105 376.7L101 404.6L169 420.6Z" fill="#15384f" stroke="#15384f"></path><path d="M73 310L86 320L110 306Z" fill="#297ea6" stroke="#297ea6"></path><path d="M73 310L110 306L104 275.1Z" fill="#19435d" stroke="#19435d"></path><path d="M100 148.4L98 191.4L118 160.6Z" fill="#205a7a" stroke="#205a7a"></path><path d="M118 160.6L98 191.4L176 231.1Z" fill="#0c2435" stroke="#0c2435"></path><path d="M840 315L890 272.1L813 270Z" fill="#112e42" stroke="#112e42"></path><path d="M842 234.3L900 190.4L826 199.3Z" fill="#15384f" stroke="#15384f"></path><path d="M833 0L789 0L790 66.9Z" fill="#00101c" stroke="#00101c"></path><path d="M840 315L816 390.7L900 325.9Z" fill="#1d4e6b" stroke="#1d4e6b"></path><path d="M63 361.9L81 359.7L86 320Z" fill="#297ea6" stroke="#297ea6"></path><path d="M86 320L81 359.7L105 376.7Z" fill="#246688" stroke="#246688"></path><path d="M158 549.3L173 506.4L158 516.3Z" fill="#246688" stroke="#246688"></path><path d="M158 549.3L183 573.1L173 506.4Z" fill="#0c2435" stroke="#0c2435"></path><path d="M900 325.9L816 390.7L900 401.6Z" fill="#112e42" stroke="#112e42"></path><path d="M890 272.1L900 227.3L842 234.3Z" fill="#15384f" stroke="#15384f"></path><path d="M900 280.1L900 277L890 272.1Z" fill="#19435d" stroke="#19435d"></path><path d="M100 95.7L118 160.6L174 115.6Z" fill="#1d4e6b" stroke="#1d4e6b"></path><path d="M45 310.9L73 310L26 251.3Z" fill="#19435d" stroke="#19435d"></path><path d="M900 401.6L816 390.7L900 406.7Z" fill="#15384f" stroke="#15384f"></path><path d="M67 214.3L130 246.3L98 191.4Z" fill="#19435d" stroke="#19435d"></path><path d="M156 499.4L157 457.6L77 495.4Z" fill="#246688" stroke="#246688"></path><path d="M99 527.1L158 549.3L158 516.3Z" fill="#0c2435" stroke="#0c2435"></path><path d="M231 11.9L192 0L214 49.7Z" fill="#1d4e6b" stroke="#1d4e6b"></path><path d="M186 47.7L124 71.9L174 115.6Z" fill="#081a28" stroke="#081a28"></path><path d="M248 0L192 0L231 11.9Z" fill="#277297" stroke="#277297"></path><path d="M876 569.1L834 477.3L786 520.3Z" fill="#1d4e6b" stroke="#1d4e6b"></path><path d="M834 477.3L869 463.4L832 439.6Z" fill="#277297" stroke="#277297"></path><path d="M900 277L900 227.3L890 272.1Z" fill="#0c2435" stroke="#0c2435"></path><path d="M192 0L189 0L186 47.7Z" fill="#205a7a" stroke="#205a7a"></path><path d="M790 66.9L789 0L768 40.9Z" fill="#00101c" stroke="#00101c"></path><path d="M768 40.9L789 0L713 0Z" fill="#0c2435" stroke="#0c2435"></path><path d="M844 57.7L817 153.4L877 74.7Z" fill="#246688" stroke="#246688"></path><path d="M165 600L193 600L183 573.1Z" fill="#246688" stroke="#246688"></path><path d="M183 573.1L193 600L243 542.1Z" fill="#246688" stroke="#246688"></path><path d="M900 227.3L900 190.4L842 234.3Z" fill="#081a28" stroke="#081a28"></path><path d="M118 58.9L124 71.9L186 47.7Z" fill="#112e42" stroke="#112e42"></path><path d="M738 600L799 585.1L740 545.1Z" fill="#19435d" stroke="#19435d"></path><path d="M900 406.7L816 390.7L832 439.6Z" fill="#205a7a" stroke="#205a7a"></path><path d="M36 139.6L98 191.4L100 148.4Z" fill="#15384f" stroke="#15384f"></path><path d="M36 139.6L67 214.3L98 191.4Z" fill="#112e42" stroke="#112e42"></path><path d="M869 463.4L900 406.7L832 439.6Z" fill="#112e42" stroke="#112e42"></path><path d="M877 74.7L817 153.4L837 166.6Z" fill="#112e42" stroke="#112e42"></path><path d="M73 310L63 361.9L86 320Z" fill="#15384f" stroke="#15384f"></path><path d="M81 359.7L62 380.7L105 376.7Z" fill="#112e42" stroke="#112e42"></path><path d="M45 310.9L63 361.9L73 310Z" fill="#19435d" stroke="#19435d"></path><path d="M0 352.9L62 380.7L63 361.9Z" fill="#205a7a" stroke="#205a7a"></path><path d="M63 361.9L62 380.7L81 359.7Z" fill="#19435d" stroke="#19435d"></path><path d="M118 58.9L100 95.7L124 71.9Z" fill="#00101c" stroke="#00101c"></path><path d="M124 71.9L100 95.7L174 115.6Z" fill="#1d4e6b" stroke="#1d4e6b"></path><path d="M900 190.4L900 154.6L837 166.6Z" fill="#297ea6" stroke="#297ea6"></path><path d="M155 0L118 58.9L186 47.7Z" fill="#112e42" stroke="#112e42"></path><path d="M26 251.3L73 310L104 275.1Z" fill="#1d4e6b" stroke="#1d4e6b"></path><path d="M158 549.3L165 600L183 573.1Z" fill="#19435d" stroke="#19435d"></path><path d="M113 600L165 600L158 549.3Z" fill="#00101c" stroke="#00101c"></path><path d="M189 0L155 0L186 47.7Z" fill="#0c2435" stroke="#0c2435"></path><path d="M900 154.6L877 74.7L837 166.6Z" fill="#246688" stroke="#246688"></path><path d="M844 57.7L833 0L790 66.9Z" fill="#15384f" stroke="#15384f"></path><path d="M73 483.3L157 457.6L101 404.6Z" fill="#277297" stroke="#277297"></path><path d="M867 19.9L833 0L844 57.7Z" fill="#19435d" stroke="#19435d"></path><path d="M51 453.6L73 483.3L101 404.6Z" fill="#112e42" stroke="#112e42"></path><path d="M66 487.4L73 483.3L51 453.6Z" fill="#112e42" stroke="#112e42"></path><path d="M900 545.3L900 486.4L834 477.3Z" fill="#15384f" stroke="#15384f"></path><path d="M869 463.4L900 486.4L900 406.7Z" fill="#15384f" stroke="#15384f"></path><path d="M73 483.3L77 495.4L157 457.6Z" fill="#297ea6" stroke="#297ea6"></path><path d="M51 453.6L101 404.6L62 380.7Z" fill="#277297" stroke="#277297"></path><path d="M73 483.3L66 487.4L77 495.4Z" fill="#277297" stroke="#277297"></path><path d="M77 495.4L59 541.3L99 527.1Z" fill="#15384f" stroke="#15384f"></path><path d="M0 239.1L26 251.3L0 204.4Z" fill="#205a7a" stroke="#205a7a"></path><path d="M67 214.3L26 251.3L104 275.1Z" fill="#15384f" stroke="#15384f"></path><path d="M0 404.7L51 453.6L62 380.7Z" fill="#0c2435" stroke="#0c2435"></path><path d="M0 352.9L63 361.9L45 310.9Z" fill="#297ea6" stroke="#297ea6"></path><path d="M900 51.7L867 19.9L877 74.7Z" fill="#297ea6" stroke="#297ea6"></path><path d="M877 74.7L867 19.9L844 57.7Z" fill="#205a7a" stroke="#205a7a"></path><path d="M738 600L844 600L799 585.1Z" fill="#277297" stroke="#277297"></path><path d="M799 585.1L876 569.1L786 520.3Z" fill="#1d4e6b" stroke="#1d4e6b"></path><path d="M900 154.6L900 69.9L877 74.7Z" fill="#112e42" stroke="#112e42"></path><path d="M118 58.9L68 71.9L100 95.7Z" fill="#15384f" stroke="#15384f"></path><path d="M51 91.6L36 139.6L100 148.4Z" fill="#0c2435" stroke="#0c2435"></path><path d="M61 50.7L68 71.9L118 58.9Z" fill="#277297" stroke="#277297"></path><path d="M844 600L876 569.1L799 585.1Z" fill="#081a28" stroke="#081a28"></path><path d="M51 91.6L100 148.4L100 95.7Z" fill="#297ea6" stroke="#297ea6"></path><path d="M900 69.9L900 51.7L877 74.7Z" fill="#00101c" stroke="#00101c"></path><path d="M68 71.9L51 91.6L100 95.7Z" fill="#0c2435" stroke="#0c2435"></path><path d="M0 239.1L7 258.1L26 251.3Z" fill="#19435d" stroke="#19435d"></path><path d="M26 251.3L7 258.1L45 310.9Z" fill="#00101c" stroke="#00101c"></path><path d="M99 527.1L113 600L158 549.3Z" fill="#081a28" stroke="#081a28"></path><path d="M85 587.1L113 600L99 527.1Z" fill="#00101c" stroke="#00101c"></path><path d="M59 541.3L77 495.4L66 487.4Z" fill="#1d4e6b" stroke="#1d4e6b"></path><path d="M876 569.1L900 545.3L834 477.3Z" fill="#1d4e6b" stroke="#1d4e6b"></path><path d="M155 0L103 0L118 58.9Z" fill="#246688" stroke="#246688"></path><path d="M68 71.9L45 74.7L51 91.6Z" fill="#297ea6" stroke="#297ea6"></path><path d="M900 0L874 0L867 19.9Z" fill="#00101c" stroke="#00101c"></path><path d="M867 19.9L874 0L833 0Z" fill="#297ea6" stroke="#297ea6"></path><path d="M7 258.1L0 303L45 310.9Z" fill="#00101c" stroke="#00101c"></path><path d="M0 204.4L26 251.3L67 214.3Z" fill="#1d4e6b" stroke="#1d4e6b"></path><path d="M7 258.1L0 239.1L0 303Z" fill="#277297" stroke="#277297"></path><path d="M0 204.4L67 214.3L0 176.3Z" fill="#19435d" stroke="#19435d"></path><path d="M0 303L0 352.9L45 310.9Z" fill="#205a7a" stroke="#205a7a"></path><path d="M0 476.3L59 541.3L66 487.4Z" fill="#1d4e6b" stroke="#1d4e6b"></path><path d="M103 0L61 50.7L118 58.9Z" fill="#112e42" stroke="#112e42"></path><path d="M0 74.9L9 150.4L36 139.6Z" fill="#297ea6" stroke="#297ea6"></path><path d="M844 600L875 600L876 569.1Z" fill="#081a28" stroke="#081a28"></path><path d="M876 569.1L900 593.1L900 545.3Z" fill="#1d4e6b" stroke="#1d4e6b"></path><path d="M61 50.7L45 74.7L68 71.9Z" fill="#112e42" stroke="#112e42"></path><path d="M0 476.3L66 487.4L51 453.6Z" fill="#246688" stroke="#246688"></path><path d="M0 176.3L67 214.3L36 139.6Z" fill="#246688" stroke="#246688"></path><path d="M59 541.3L85 587.1L99 527.1Z" fill="#277297" stroke="#277297"></path><path d="M0 352.9L0 404.7L62 380.7Z" fill="#081a28" stroke="#081a28"></path><path d="M0 74.9L36 139.6L51 91.6Z" fill="#297ea6" stroke="#297ea6"></path><path d="M9 150.4L0 176.3L36 139.6Z" fill="#1d4e6b" stroke="#1d4e6b"></path><path d="M9 150.4L0 162.6L0 176.3Z" fill="#112e42" stroke="#112e42"></path><path d="M0 74.9L0 162.6L9 150.4Z" fill="#297ea6" stroke="#297ea6"></path><path d="M0 404.7L0 436.4L51 453.6Z" fill="#081a28" stroke="#081a28"></path><path d="M900 51.7L900 0L867 19.9Z" fill="#081a28" stroke="#081a28"></path><path d="M0 436.4L0 443.6L51 453.6Z" fill="#246688" stroke="#246688"></path><path d="M59 541.3L48 565.1L85 587.1Z" fill="#246688" stroke="#246688"></path><path d="M875 600L900 593.1L876 569.1Z" fill="#00101c" stroke="#00101c"></path><path d="M875 600L900 600L900 593.1Z" fill="#277297" stroke="#277297"></path><path d="M0 54.7L0 74.9L45 74.7Z" fill="#19435d" stroke="#19435d"></path><path d="M45 74.7L0 74.9L51 91.6Z" fill="#277297" stroke="#277297"></path><path d="M103 0L65 0L61 50.7Z" fill="#277297" stroke="#277297"></path><path d="M0 550.1L48 565.1L59 541.3Z" fill="#205a7a" stroke="#205a7a"></path><path d="M0 443.6L0 476.3L51 453.6Z" fill="#19435d" stroke="#19435d"></path><path d="M0 54.7L45 74.7L61 50.7Z" fill="#112e42" stroke="#112e42"></path><path d="M0 0L0 54.7L61 50.7Z" fill="#00101c" stroke="#00101c"></path><path d="M0 476.3L0 550.1L59 541.3Z" fill="#00101c" stroke="#00101c"></path><path d="M48 565.1L20 600L85 587.1Z" fill="#0c2435" stroke="#0c2435"></path><path d="M85 587.1L20 600L113 600Z" fill="#112e42" stroke="#112e42"></path><path d="M0 550.1L20 600L48 565.1Z" fill="#1d4e6b" stroke="#1d4e6b"></path><path d="M65 0L0 0L61 50.7Z" fill="#19435d" stroke="#19435d"></path><path d="M0 550.1L0 600L20 600Z" fill="#0c2435" stroke="#0c2435"></path></g></svg>